PathFileType	4	(X/Y/Z)	subject01_walk1.trc
DataRate	CameraRate	NumFrames	NumMarkers	Units	OrigDataRate	OrigDataStartFrame	OrigNumFrames
60.00	60.00	       4	41	mm	60.00	19	       151
Frame#	Time	R.ASIS			L.ASIS			V.Sacral			R.Thigh.Upper			R.Thigh.Front			R.Thigh.Rear			L.Thigh.Upper			L.Thigh.Front			L.Thigh.Rear			R.Shank.Upper			R.Shank.Front			R.Shank.Rear			L.Shank.Upper			L.Shank.Front			L.Shank.Rear			R.Heel			R.Midfoot.Sup			R.Midfoot.Lat			R.Toe.Tip			L.Heel			L.Midfoot.Sup			L.Midfoot.Lat			L.Toe.Tip			Sternum			R.Acromium			L.Acromium			R.Bicep			L.Bicep			R.Elbow			L.Elbow			R.Wrist.Med			R.Wrist.Lat			L.Wrist.Med			L.Wrist.Lat			R.Toe.Lat			R.Toe.Med			L.Toe.Lat			L.Toe.Med			R.Temple			L.Temple			Top.Head			
		X1	Y1	Z1	X2	Y2	Z2	X3	Y3	Z3	X4	Y4	Z4	X5	Y5	Z5	X6	Y6	Z6	X7	Y7	Z7	X8	Y8	Z8	X9	Y9	Z9	X10	Y10	Z10	X11	Y11	Z11	X12	Y12	Z12	X13	Y13	Z13	X14	Y14	Z14	X15	Y15	Z15	X16	Y16	Z16	X17	Y17	Z17	X18	Y18	Z18	X19	Y19	Z19	X20	Y20	Z20	X21	Y21	Z21	X22	Y22	Z22	X23	Y23	Z23	X24	Y24	Z24	X25	Y25	Z25	X26	Y26	Z26	X27	Y27	Z27	X28	Y28	Z28	X29	Y29	Z29	X30	Y30	Z30	X31	Y31	Z31	X32	Y32	Z32	X33	Y33	Z33	X34	Y34	Z34	X35	Y35	Z35	X36	Y36	Z36	X37	Y37	Z37	X38	Y38	Z38	X39	Y39	Z39	X40	Y40	Z40	X41	Y41	Z41	

19	0.300000	1633.406190	1086.531010	1118.334630	1648.428770	1070.045530	858.390200	1442.938080	1075.151250	988.618750	1656.111150	765.872920	1185.726010	1743.479490	717.489200	1109.022960	1677.284480	646.187260	1188.346600	1609.937320	764.026180	812.265230	1699.211180	732.548030	881.684840	1612.746090	654.609010	834.275050	1593.158200	527.685360	1172.860950	1629.286320	442.033170	1132.393740	1541.071230	458.643680	1176.559310	1604.542480	440.579710	844.032240	1648.128480	390.442380	900.281570	1581.437560	397.725920	838.474640	1282.558690	306.244870	1059.948000	1381.551030	194.792370	1062.685310	1340.873020	203.770830	1160.850460	1434.691800	72.570640	1132.629820	1498.305880	76.706790	941.358940	1668.940430	75.239400	971.096960	1653.507510	67.940340	873.591010	1781.404910	49.768060	941.638230	1664.775880	1385.720580	968.074850	1555.903630	1485.036870	1168.597310	1608.897340	1489.492190	752.796780	1549.304810	1286.073360	1223.804990	1640.977480	1249.423220	738.139530	1496.081670	1188.766360	1253.344010	1597.881470	1149.784180	703.740510	1616.948120	947.343630	1269.765110	1571.671390	938.739690	1316.095340	1718.169740	930.490420	762.606900	1676.267460	915.748600	700.887020	1368.492000	121.352050	1191.987060	1406.504330	107.501660	1089.941580	1716.051450	41.885810	866.082000	1730.955080	51.166110	967.279550	1731.249270	1607.165280	1045.359220	1746.899840	1607.987790	906.636670	1743.750370	1782.526610	980.651710	
20	0.317000	1630.107670	1087.621830	1116.429790	1644.916750	1069.986330	856.690020	1440.562900	1076.133300	987.906440	1663.665890	771.677730	1183.929080	1748.894900	723.589050	1106.724020	1688.919250	651.999690	1187.205630	1599.564150	764.333070	811.870190	1689.210330	731.097170	880.090710	1601.326970	655.014650	832.799270	1609.114380	529.204650	1170.263050	1647.595580	445.852050	1131.480130	1559.237610	457.607790	1175.466740	1588.290770	440.797520	842.949220	1631.110780	390.222230	899.833770	1565.172360	398.362460	837.917080	1305.670620	294.912840	1061.141890	1410.496640	189.361180	1061.321730	1370.867160	194.991990	1160.152800	1471.723480	69.837200	1129.139140	1479.731660	76.975160	941.074800	1650.142880	75.190240	970.803360	1634.595760	67.816090	873.330530	1762.434810	49.282550	941.328870	1662.606260	1386.177860	967.102090	1551.223210	1484.966670	1168.085140	1608.567810	1491.244380	751.492610	1543.239750	1287.681640	1222.237640	1642.262270	1252.177490	737.612340	1489.789280	1190.957640	1251.206270	1600.798400	1151.141970	703.412930	1609.802800	949.458370	1269.301090	1563.636660	940.426270	1315.258820	1726.086180	935.939390	763.528210	1684.989560	919.486080	702.383580	1403.530980	113.129680	1189.917620	1441.184080	103.267710	1086.991610	1697.103090	41.619730	865.823990	1711.951050	50.951760	967.030320	1730.083010	1608.526250	1044.154320	1745.152650	1609.058720	906.771340	1742.467900	1783.619260	980.511710	
21	0.333000	1629.547790	1089.789670	1114.353170	1641.757020	1069.472530	853.958100	1437.908910	1076.649410	987.142210	1669.483700	776.635990	1184.914510	1756.319760	731.743230	1104.537710	1698.189820	657.262210	1185.968280	1589.183170	764.706480	811.966610	1679.883240	730.289180	876.996240	1588.549070	655.863950	831.769850	1621.916140	530.251220	1169.857250	1664.784300	448.921230	1130.418320	1576.415590	456.428830	1174.649810	1571.759700	441.228270	842.620150	1616.253420	390.767850	897.965310	1549.002810	399.123810	837.320020	1329.848790	280.214170	1063.526220	1441.122860	181.928960	1060.489360	1402.874360	183.648560	1159.974610	1511.478030	65.893410	1125.097430	1461.199520	77.292180	940.854680	1631.226010	75.221990	970.447100	1615.748840	67.574040	873.075880	1743.336430	48.871250	941.122330	1661.347230	1387.399540	966.343100	1550.877870	1486.258910	1166.294740	1608.370790	1493.087160	751.255720	1538.828000	1288.528320	1220.897510	1642.082460	1253.499880	737.197940	1483.407560	1191.011470	1249.793350	1603.045170	1152.150630	701.951020	1603.702210	950.695860	1268.242800	1555.291320	941.333740	1313.439670	1733.533510	941.629520	765.057340	1693.873110	923.031620	703.885740	1439.680050	102.994750	1187.342830	1478.194890	97.774000	1084.301150	1678.122560	41.434200	865.448460	1693.026370	50.763180	966.810660	1728.005000	1608.240720	1044.661000	1744.073300	1609.949830	906.265670	1740.647220	1784.263920	980.708630	
22	0.350000	1627.204280	1090.220950	1112.220410	1638.091670	1068.826780	852.557600	1434.908480	1076.838130	986.050630	1673.791140	781.075870	1184.358670	1760.112490	736.901000	1102.837700	1705.883120	662.072690	1184.426060	1579.017210	765.255800	811.910540	1669.901610	728.771610	875.110340	1577.112610	656.550660	831.076430	1635.301030	531.056760	1171.006670	1680.069460	451.898830	1128.227220	1592.207400	454.364320	1175.730800	1555.901060	442.009310	842.177250	1599.704100	390.676030	896.828950	1532.800110	399.994450	836.790680	1355.386750	262.351170	1066.553980	1473.436220	172.794890	1060.402070	1436.859160	170.401720	1160.419680	1553.596680	61.566130	1121.636480	1442.666260	77.701820	940.688620	1612.246890	75.269120	970.062980	1596.905580	67.249380	872.773950	1724.195070	48.540720	940.930800	1660.062380	1387.412960	965.843110	1548.144230	1485.358520	1165.864880	1607.683290	1493.859500	750.960210	1532.514280	1288.580930	1219.578890	1643.733580	1255.727780	735.208190	1476.733640	1192.231690	1247.750760	1605.845950	1152.783450	700.290560	1597.017820	951.017030	1268.042140	1550.062990	942.582150	1312.669250	1741.546390	947.152890	766.277220	1702.200680	926.240540	705.820250	1482.395810	93.144870	1187.085560	1517.100220	91.492650	1082.522800	1659.052000	41.203230	865.050320	1674.123050	50.531880	966.614270	1727.557740	1608.787110	1044.158770	1742.867740	1610.052980	906.116650	1740.287110	1784.254150	981.030240	
